<?xml version="1.0" encoding="iso-8859-1"?>
<!DOCTYPE svg PUBLIC "-//W3C//DTD SVG 1.1 Basic//EN" "http://www.w3.org/Graphics/SVG/1.1/DTD/svg11-basic.dtd">
<svg xmlns="http://www.w3.org/2000/svg" xmlns:xlink="http://www.w3.org/1999/xlink" viewBox="0 0 540 540">
<defs>
  <radialGradient id="Fill_x5F_greygradient_1_" cx="0" cy="0" r="1.2">
		<stop  offset="0" stop-color="#FFFFFF"/>
		<stop  offset="0.1932" stop-color="#FBFBFB"/>
		<stop  offset="0.399" stop-color="#EEEFF1"/>
		<stop  offset="0.6105" stop-color="#D9DBDE"/>
		<stop  offset="0.8247" stop-color="#BBBFC5"/>
		<stop  offset="1" stop-color="#9DA2AC"/>
	</radialGradient>
  
  <radialGradient id="XMLID_6_" cx=".5" cy=".42" r=".58" fx=".20" fy=".2">
    <stop offset="0.3" stop-color="#ED1C24" />
    <stop offset=".6" stop-color="#ED1C24" />
    <stop offset=".7" stop-color="#DD0000" />
    <stop offset=".75" stop-color="#CC0000" />
    <stop offset=".85" stop-color="#AA0000" />
    <stop offset="1" stop-color="#990000" />
	</radialGradient>   
  
  <radialGradient id="XMLID_4_" cx=".80" cy=".70" r="0.99" fx="1.20" fy="0.8">
    <stop  offset="0" stop-color="#880000"/>
    <stop  offset="0.5" stop-color="#AA0000"/>
    <stop  offset="0.7" stop-color="#ED1C24"/>
	  <stop  offset="1" stop-color="#ED1C24"/>
  </radialGradient>

  <linearGradient id="XMLID_1_" gradientUnits="userSpaceOnUse" x1="577.6216" y1="137.8296" x2="597.6511" y2="160.0746">
	  <stop  offset="0" stop-color="#FFFFFF"/>
	  <stop  offset="0.8" stop-color="#ED1C24" stop-opacity="0"/>
  </linearGradient>
  
</defs>


<rect id="Background" fill="#ED1C24" width="540" height="540"/>


<g id="Logo" transform="translate(-340 0)">
	<path id="Outline_x5F__x23_9DA3AD" fill="none" stroke="#9DA3AD" stroke-width="4" d="M812.9,261.9c0,106.6-86.4,193-193,193
		c-106.6,0-193-86.4-193-193s86.4-193,193-193C726.6,68.9,812.9,155.3,812.9,261.9z"/>
	<path id="Outline_x5F__x23_C7CACF" fill="none" stroke="#C7CACF" stroke-width="5" d="M430.8,261.9c0,104.3,84.9,189.2,189.2,189.2
		c104.3,0,189.2-84.9,189.2-189.2c0-104.3-84.9-189.2-189.2-189.2C515.7,72.7,430.8,157.6,430.8,261.9z"/>
	<circle id="Fill_x5F_greygradient" fill="url(#Fill_x5F_greygradient_1_)" cx="621.5" cy="263" r="191.1"/>
	<path id="White_Highlight_Belly" fill="#FFFFFF" stroke="#FFFFFF" d="M734,266.7c0,68.7-54.5,115.1-117.5,107.2
	c3.6,0.5,7.2,0.7,10.8,0.8c4.9,0.1,9.9-0.4,14.7-1.1c4.7-0.6,9.3-1.6,13.9-2.9c13.1-3.8,25.5-10.1,36.3-18.9c3.1-2.5,6-5.2,8.8-8.1
		c7.5-7.8,13.7-16.8,18.5-26.5c7.3-14.8,11.1-31.4,11.1-48.3c0-1.3,0-2.6-0.1-3.9c-0.3-10.2-1.8-19.8-4.4-28.8
		c-2.7-9.2-6.5-17.7-11.5-25.5c-0.5-0.8-1-1.6-1.5-2.3c-6.8-9.9-15.6-18.5-26.4-25.4c-11.3-7.3-25-12.9-40.6-16.3
		C681.6,172.1,734,200.9,734,266.7z"/>
  <path id="White_Highlight_Speechmark_Apex" fill="#FFFFFF" d="M695.1,93.1c-15.6,4.7-53.3,27.4-53.1,76.8
		C644,139.8,664,109,695.1,93.1c0.1,0,0.4-0.1,0.6-0.2c0.3-0.1,0.5-0.2,0.8-0.3C696,92.7,695.6,92.9,695.1,93.1z"/>
    
	<g id="Outlines_Speechmark">
		<path id="white_speechmark_outline_-_nn" fill="none" stroke="#FFFFFF" stroke-width="4" stroke-linecap="round" d="M639.9,166.4
			c14.7,3.4,34,10.1,45.2,17.1c11.1,6.9,20.5,15.5,27.7,25.6l1.6,2.3c5.2,7.7,9.3,16.4,12.1,25.6c2.7,9,4.3,18.6,4.6,28.8l0.1,3.9
			c0,16.8-4,33.6-11.6,48.4c-5,9.8-11.5,18.8-19.3,26.5c-2.9,2.9-6,5.6-9.2,8.1c-11.2,8.9-24,15.3-37.9,19.1
			c-9.8,2.7-19.8,4-29.9,3.8c-3.8-0.1-7.6-0.3-11.3-0.8c-5.7-0.7-11.5-1.9-17-3.5c-18.4-5.3-35.3-15.5-48.9-29.3
			c-5.4-5.5-10.3-11.6-14.5-18.2c-6.2-9.7-11.1-20.5-14.4-31.9c0,0-0.7-2.6-0.7-2.6c-1.7-6.3-2.9-12.9-3.6-19.6
			c-0.5-4.9-0.7-18.5-0.7-20.4c0,0,0.1-2,0.1-2.1c0.5-9.5,2-19,4.3-28.3c8.3-33.7,27.9-65,55.3-88.1c15.2-13,33.3-23.6,53.8-31.5
			c6.8-2.6,12.2-3.8,16-4.9c0,0,9.9-2,9.9-2c8.4-2.1,16.6-3.2,24.6-4.1c0,0,18.1-1.7,20.7,3"/>
    <path fill="none" stroke="#5A6F7C" stroke-width="2" stroke-linecap="round" d="M535.9,321.3c4,6.3,8.7,12.2,14,17.6
			c13.3,13.5,29.6,23.2,47.3,28.4c5.4,1.6,10.9,2.7,16.5,3.4c3.6,0.4,7.2,0.7,10.9,0.7c9.8,0.1,19.5-1.1,28.9-3.7	c13.3-3.6,25.8-9.9,36.6-18.5c3.1-2.4,6-5,8.8-7.8c7.6-7.6,13.9-16.2,18.6-25.6c7.3-14.3,11.2-30.4,11.2-46.7c0-1.3,0-2.5-0.1-3.8
		  c-0.4-9.8-1.8-19.1-4.5-27.9c-2.7-8.9-6.6-17.1-11.6-24.6c-0.5-0.8-1-1.5-1.6-2.3c-6.9-9.6-15.8-17.9-26.7-24.6
			c-11.4-7-25.3-12.6-41-15.9"/>
		<path id="Outline__x23_8CA0AA" fill="none" stroke="#8CA0AA" stroke-width="2" stroke-linecap="round" d="M537.4,322.3
			c4,6.3,8.7,12.2,14,17.6c13.3,13.5,29.6,23.2,47.3,28.4c5.4,1.6,10.9,2.7,16.5,3.4c3.6,0.4,7.2,0.7,10.9,0.7
			c9.8,0.1,19.5-1.1,28.9-3.7c13.3-3.6,25.8-9.9,36.6-18.5c3.1-2.4,6-5,8.8-7.8c7.6-7.6,13.9-16.2,18.6-25.6
			c7.3-14.3,11.2-30.4,11.2-46.7c0-1.3,0-2.5-0.1-3.8c-0.4-9.8-1.8-19.1-4.5-27.9c-2.7-8.9-6.6-17.1-11.6-24.6
			c-0.5-0.8-1-1.5-1.6-2.3c-6.9-9.6-15.8-17.9-26.7-24.6c-11.4-7-25.3-12.6-41-15.9"/>
		<path id="Outline__x23_5A6F7C" fill="none" stroke="#5A6F7C" stroke-width="2" stroke-linecap="round" d="M698.7,90.6
			c-2.7-2.5-11.8-1.9-22.2-0.8c-7.3,0.8-15.6,2.2-24.3,4.4c-3.2,0.8-6.5,1.7-9.8,2.6c-5.2,1.5-10.4,3.3-15.8,5.3
			c-17.9,6.9-36.4,16.9-52.7,30.9c-24.5,20.7-45.4,50.7-54.1,86.2c-2.2,8.9-3.6,18.1-4.1,27.6c0,0.7-0.1,1.3-0.1,2
c-0.3,6.6-0.1,13.3,0.6,19.8c0.7,6.4,1.9,12.8,3.5,19c0.2,0.8,0.4,1.7,0.7,2.5c3.1,10.9,7.8,21.4,14,31c4,6.3,8.7,12.2,14,17.6
c13.3,13.5,29.6,23.2,47.3,28.4c5.4,1.6,10.9,2.7,16.5,3.4c3.6,0.4,7.2,0.7,10.9,0.7c9.8,0.1,19.5-1.1,28.9-3.7
c13.3-3.6,25.8-9.9,36.6-18.5c3.1-2.4,6-5,8.8-7.8c7.6-7.6,13.9-16.2,18.6-25.6c7.3-14.3,11.2-30.4,11.2-46.7c0-1.3,0-2.5-0.1-3.8 c-0.4-9.8-1.8-19.1-4.5-27.9c-2.7-8.9-6.6-17.1-11.6-24.6c-0.5-0.8-1-1.5-1.6-2.3c-6.9-9.6-15.8-17.9-26.7-24.6
c-11.4-7-25.3-12.6-41-15.9 M534.4,321.3c4,6.3,8.7,12.2,14,17.6c13.3,13.5,29.6,23.2,47.3,28.4c5.4,1.6,10.9,2.7,16.5,3.4
c3.6,0.4,7.2,0.7,10.9,0.7c9.8,0.1,19.5-1.1,28.9-3.7c13.3-3.6,25.8-9.9,36.6-18.5c3.1-2.4,6-5,8.8-7.8
c7.6-7.6,13.9-16.2,18.6-25.6c7.3-14.3,11.2-30.4,11.2-46.7c0-1.3,0-2.5-0.1-3.8c-0.4-9.8-1.8-19.1-4.5-27.9
c-2.7-8.9-6.6-17.1-11.6-24.6c-0.5-0.8-1-1.5-1.6-2.3c-6.9-9.6-15.8-17.9-26.7-24.6c-11.4-7-25.3-12.6-41-15.9"/>
	</g>  
<g id="Speechmark">
<path id="Speechmark_darkred" fill="#B01116" d="M548.2,338.7c13.3,13.5,29.6,23.3,47.3,28.4c5.4,1.6,10.9,2.7,16.5,3.4
	c3.6,0.4,7.2,0.7,10.9,0.7c9.8,0.1,19.5-1.1,28.9-3.7c13.3-3.7,25.8-9.9,36.6-18.5c3.1-2.4,6-5,8.8-7.8
	c7.6-7.6,13.9-16.2,18.6-25.6c7.3-14.3,11.2-30.4,11.2-46.7c0-1.2,0-2.5-0.1-3.8c-0.4-9.8-1.8-19.1-4.5-27.9
	c-2.7-8.9-6.6-17.1-11.6-24.6c-0.5-0.8-1-1.5-1.6-2.2c-6.9-9.6-15.8-17.9-26.7-24.6c-11.4-7-24.8-12.6-40.5-15.9
	c0-0.8-0.1-1.6-0.1-2.4c0-34.2,21.9-63.4,52.7-74.3c7.8-2.8,3.4-4.2-1.8-4.3c-4.7-0.1-10.3,0.1-16.6,0.8
	c-7.3,0.8-15.6,2.2-24.3,4.4c-3.2,0.8-6.5,1.7-9.8,2.6c-5.2,1.5-10.4,3.3-15.8,5.3C608.5,109,590,119,573.7,133
	c-24.5,20.7-45.4,50.7-54.1,86.2c-2.2,8.9-3.6,18.1-4.2,27.6c0,0.7-0.1,1.3-0.1,2c-0.3,6.6-0.1,13.3,0.6,19.8
	c0.7,6.4,1.9,12.8,3.5,19c0.2,0.8,0.4,1.7,0.7,2.5c3.1,10.9,7.8,21.4,14,31C538.2,327.4,542.8,333.3,548.2,338.7z"/>
<path id="Speechmark_Red_7_" fill="#ED1C24" d="M641.2,173.7c15,3.2,28.3,8.3,39.5,15.2c10.3,6.4,18.9,14.3,25.6,23.6
	c0,0,1.5,2.2,1.5,2.2c4.8,7.1,8.5,15.1,11.1,23.6c2.5,8.4,4,17.4,4.3,26.9l0.1,3.7c0,15.7-3.7,31.3-10.8,45.1
	c-4.7,9.1-10.7,17.4-18,24.7c-2.7,2.7-5.6,5.2-8.5,7.5c-10.5,8.2-22.3,14.2-35.3,17.8c-9.1,2.5-18.5,3.7-27.8,3.6
	c-3.5-0.1-7.1-0.3-10.5-0.7c-5.3-0.6-10.7-1.7-15.9-3.3c-17.2-5-33-14.4-45.7-27.4c-5-5.1-9.6-10.8-13.6-17
	c-5.9-9.1-10.4-19.2-13.5-30l-0.7-2.5c-1.6-5.9-2.7-12.2-3.4-18.5c-0.5-4.6-0.7-9.2-0.7-13.9c0,0,0.1-5.4,0.1-5.4
c0,0,0.1-2.1,0.1-2c0.5-9.1,1.9-18.1,4-27c7.9-32.2,26.7-62.1,52.9-84.3c14.5-12.5,31.9-22.6,51.6-30.2c5.1-2,10.3-3.7,15.4-5.2 c0,0,9.7-2.6,9.7-2.6c8.1-2,16.2-3.4,23.9-4.3c3.4-0.4,6.6-0.6,9.6-0.7c-1.8,0.8-3.6,1.8-5.4,2.7c-26.1,14.4-42.9,42-42.9,72.3 C638.1,167.7,636.7,172,641.2,173.7z"/>	

<path id="Speechmark_Red_8_" fill="url(#XMLID_6_)" d="M640.1,174.7c14.5,3.1,27.9,10,38.7,16.7
	c10,6.2,18.3,13.9,24.8,22.8c0,0,1.5,2.1,1.5,2.1c4.6,6.9,8.3,14.6,10.8,22.9c2.4,8.1,3.8,16.9,4.2,26l0.1,3.5
	c0,15.2-3.6,30.3-10.4,43.6c-4.5,8.8-10.4,16.9-17.4,23.9c-2.6,2.6-5.4,5.1-8.3,7.3c-10.1,8-21.6,13.8-34.2,17.2
	c-8.8,2.4-17.9,3.6-27,3.5c-3.4-0.1-6.8-0.3-10.2-0.7c-5.2-0.6-10.3-1.7-15.4-3.2c-16.6-4.8-32-14-44.3-26.5
	c-4.9-5-9.3-10.5-13.1-16.4c-5.7-8.8-10.1-18.6-13.1-29l-0.7-2.4c-1.5-5.8-2.6-11.8-3.3-17.9c-0.5-4.4-0.7-9-0.7-13.5
	c0,0,0.1-5.2,0.1-5.2c0,0,0.1-2,0.1-1.9c0.5-8.8,1.8-17.6,3.9-26.1C526.2,221.6,547.4,154.4,640.1,174.7z"/> 
  
<path id="Apex" fill="#ED1C24" d="M634.3,173.2c0-27.9,10-62.2,43-77.8c0,0-28.3,3.3-55,15c-17.8,7.8-33.3,17.9-46.7,29.3
	c-24.1,20.4-42,51.7-49.3,81.3c0,0,9.7-30.2,49-44.7C594.3,169.3,618.3,169.5,634.3,173.2z"/>

<path id="Apex_2_" fill="url(#XMLID_4_)" d="M634.3,173.5c0-27.9,10-62.2,43-77.8c0,0-66.3,7.7-82,75.8
	C595.3,171.5,610.3,168.7,634.3,173.5z"/>

<path fill="#ED1C24" d="M575.3,176.3c-39.1,15-49,44.7-49,44.7c7.3-29.6,25.2-60.9,49.3-81.3c13.4-11.5,28.9-21.5,46.7-29.3
	c26.7-11.7,55-15,55-15c-0.3,0.1-0.6,0.3-0.9,0.5c-8,1.2-66.5,12.2-81.1,75.7C595.3,171.5,579.7,174.7,575.3,176.3z"/>

<path fill="url(#XMLID_1_)" d="M526.3,221c7.3-29.6,25.2-60.9,49.3-81.3c13.4-11.5,28.9-21.5,46.7-29.3c0,0,23-10,45-13"/>

</g>

</svg>
